<svg width="1100" height="275" viewBox="0 0 1100 275" fill="none" xmlns="http://www.w3.org/2000/svg">
<path d="M0 0H1100V208C1100 245.003 1070 275 1033 275H0V0Z" fill="#0C1117"/>
<path d="M103.878 138V131.612L129.283 95.9652H103.828V87.0909H142.805V93.4794L117.376 129.126H142.855V138H103.878ZM150.915 138V99.8182H161.505V138H150.915ZM156.235 94.8963C154.661 94.8963 153.31 94.3743 152.183 93.3303C151.073 92.2696 150.518 91.0019 150.518 89.527C150.518 88.0687 151.073 86.8175 152.183 85.7734C153.31 84.7128 154.661 84.1825 156.235 84.1825C157.809 84.1825 159.152 84.7128 160.262 85.7734C161.389 86.8175 161.952 88.0687 161.952 89.527C161.952 91.0019 161.389 92.2696 160.262 93.3303C159.152 94.3743 157.809 94.8963 156.235 94.8963ZM187.388 138.746C183.461 138.746 180.08 137.95 177.246 136.359C174.429 134.752 172.258 132.482 170.733 129.548C169.209 126.598 168.446 123.11 168.446 119.083C168.446 115.156 169.209 111.709 170.733 108.742C172.258 105.776 174.404 103.464 177.172 101.807C179.956 100.15 183.22 99.321 186.966 99.321C189.484 99.321 191.829 99.727 194 100.539C196.188 101.335 198.094 102.536 199.718 104.143C201.358 105.751 202.634 107.773 203.546 110.209C204.457 112.628 204.913 115.462 204.913 118.71V121.619H172.672V115.056H194.945C194.945 113.531 194.614 112.181 193.951 111.004C193.288 109.828 192.368 108.908 191.191 108.245C190.031 107.566 188.681 107.226 187.14 107.226C185.532 107.226 184.107 107.599 182.864 108.344C181.638 109.074 180.676 110.06 179.98 111.303C179.284 112.529 178.928 113.896 178.912 115.404V121.643C178.912 123.533 179.26 125.165 179.956 126.54C180.668 127.916 181.671 128.977 182.963 129.722C184.256 130.468 185.789 130.841 187.562 130.841C188.739 130.841 189.816 130.675 190.794 130.344C191.771 130.012 192.608 129.515 193.304 128.852C194 128.189 194.531 127.377 194.895 126.416L204.689 127.062C204.192 129.416 203.173 131.471 201.632 133.227C200.107 134.967 198.135 136.326 195.716 137.304C193.313 138.265 190.537 138.746 187.388 138.746ZM219.989 99.8182L226.999 113.167L234.183 99.8182H245.046L233.984 118.909L245.344 138H234.531L226.999 124.8L219.592 138H208.654L219.989 118.909L209.052 99.8182H219.989Z" fill="white"/>
<path d="M101.396 176.178C101.396 174.244 101.858 172.758 102.782 171.72C103.706 170.681 105.042 170.162 106.789 170.162C108.092 170.162 109.167 170.477 110.012 171.107C110.857 171.73 111.38 172.572 111.58 173.632L109.518 173.782C109.403 173.131 109.117 172.618 108.658 172.246C108.2 171.867 107.548 171.677 106.703 171.677C105.572 171.677 104.741 172.028 104.211 172.729C103.688 173.431 103.427 174.566 103.427 176.135C103.427 177.725 103.688 178.888 104.211 179.626C104.741 180.356 105.568 180.722 106.692 180.722C107.466 180.722 108.107 180.532 108.615 180.152C109.124 179.773 109.439 179.193 109.561 178.412L111.602 178.541C111.508 179.229 111.247 179.855 110.817 180.421C110.395 180.979 109.833 181.42 109.131 181.742C108.429 182.057 107.645 182.215 106.778 182.215C105.024 182.215 103.688 181.699 102.771 180.668C101.855 179.637 101.396 178.14 101.396 176.178ZM124.997 176.178C124.997 178.133 124.546 179.63 123.644 180.668C122.748 181.699 121.452 182.215 119.755 182.215C118.093 182.215 116.819 181.692 115.931 180.646C115.05 179.601 114.609 178.111 114.609 176.178C114.609 174.18 115.061 172.679 115.963 171.677C116.872 170.667 118.158 170.162 119.819 170.162C121.567 170.162 122.867 170.66 123.719 171.655C124.571 172.651 124.997 174.158 124.997 176.178ZM122.967 176.178C122.967 174.638 122.72 173.489 122.226 172.729C121.739 171.97 120.947 171.591 119.852 171.591C118.742 171.591 117.929 171.978 117.413 172.751C116.897 173.524 116.64 174.667 116.64 176.178C116.64 177.682 116.897 178.827 117.413 179.615C117.929 180.396 118.702 180.786 119.733 180.786C120.872 180.786 121.696 180.403 122.204 179.637C122.713 178.87 122.967 177.717 122.967 176.178ZM135.75 182V174.534C135.75 173.56 135.56 172.837 135.181 172.364C134.808 171.892 134.21 171.655 133.387 171.655C132.499 171.655 131.768 171.981 131.195 172.633C130.63 173.277 130.347 174.155 130.347 175.265V182H128.413V172.858C128.413 171.505 128.392 170.678 128.349 170.377H130.175C130.182 170.413 130.189 170.509 130.196 170.667C130.203 170.825 130.211 171.007 130.218 171.215C130.232 171.415 130.246 171.799 130.261 172.364H130.293C131.045 170.896 132.284 170.162 134.01 170.162C135.249 170.162 136.173 170.499 136.781 171.172C137.39 171.838 137.694 172.866 137.694 174.255V182H135.75ZM151.025 178.681C151.025 179.784 150.606 180.65 149.769 181.28C148.938 181.903 147.785 182.215 146.31 182.215C144.834 182.215 143.71 181.986 142.937 181.527C142.17 181.062 141.669 180.331 141.433 179.336L143.141 179.003C143.277 179.619 143.567 180.07 144.011 180.356C144.462 180.636 145.228 180.775 146.31 180.775C148.243 180.775 149.21 180.163 149.21 178.938C149.21 178.48 149.035 178.111 148.684 177.832C148.333 177.546 147.796 177.313 147.072 177.134C145.182 176.668 143.982 176.303 143.474 176.038C142.965 175.773 142.575 175.444 142.303 175.05C142.031 174.649 141.895 174.151 141.895 173.557C141.895 172.504 142.274 171.68 143.033 171.086C143.792 170.492 144.892 170.194 146.331 170.194C147.591 170.194 148.598 170.434 149.35 170.914C150.102 171.387 150.571 172.078 150.757 172.987L149.017 173.202C148.938 172.687 148.684 172.296 148.254 172.031C147.824 171.766 147.183 171.634 146.331 171.634C144.576 171.634 143.699 172.174 143.699 173.256C143.699 173.686 143.846 174.029 144.14 174.287C144.44 174.545 144.92 174.753 145.579 174.91L146.857 175.243C148.025 175.53 148.863 175.812 149.371 176.092C149.887 176.371 150.291 176.722 150.585 177.145C150.879 177.56 151.025 178.072 151.025 178.681ZM154.893 171.902V170.377H156.719L157.342 167.348H158.631V170.377H163.271V171.902H158.631V178.906C158.631 179.472 158.781 179.891 159.082 180.163C159.39 180.435 159.891 180.571 160.586 180.571C161.546 180.571 162.609 180.45 163.776 180.206V181.678C162.566 182.007 161.367 182.172 160.178 182.172C159.018 182.172 158.147 181.928 157.567 181.441C156.987 180.947 156.697 180.17 156.697 179.11V171.902H154.893Z" fill="#569CD6"/>
<path d="M356.728 176.307C356.728 178.276 357.032 180.056 357.641 181.646C358.249 183.235 359.241 184.875 360.616 186.565H358.575C357.2 184.875 356.212 183.239 355.61 181.656C355.016 180.066 354.719 178.276 354.719 176.285C354.719 174.33 355.012 172.568 355.6 171C356.187 169.424 357.179 167.777 358.575 166.059H360.616C359.241 167.749 358.249 169.392 357.641 170.989C357.032 172.579 356.728 174.352 356.728 176.307ZM475.289 173.589V170.377H477.813V173.589H475.289ZM473.742 185.899L475.558 178.788H478.404L475.063 185.899H473.742Z" fill="#D4D4D4"/>
<path d="M190.213 182H188.021L186.485 176.94L185.873 174.771L185.454 176.264L183.649 182H181.469L179.503 170.377H181.415L182.414 176.897C182.65 178.788 182.769 179.955 182.769 180.399C183.048 179.254 183.256 178.487 183.392 178.101L184.842 173.546H186.915L188.312 178.111C188.541 178.863 188.738 179.626 188.902 180.399C188.902 180.185 188.917 179.916 188.945 179.594C188.974 179.271 189.01 178.942 189.053 178.605C189.096 178.262 189.139 177.936 189.182 177.628C189.225 177.32 189.257 177.076 189.278 176.897L190.363 170.377H192.254L190.213 182ZM195.949 176.597C195.949 177.9 196.236 178.921 196.809 179.658C197.389 180.396 198.18 180.765 199.183 180.765C199.92 180.765 200.565 180.607 201.116 180.292C201.675 179.97 202.047 179.533 202.233 178.981L203.931 179.465C203.616 180.353 203.035 181.033 202.19 181.506C201.353 181.979 200.35 182.215 199.183 182.215C197.493 182.215 196.193 181.688 195.283 180.636C194.374 179.583 193.919 178.076 193.919 176.113C193.919 174.201 194.363 172.733 195.251 171.709C196.146 170.678 197.435 170.162 199.118 170.162C200.801 170.162 202.076 170.674 202.942 171.698C203.809 172.722 204.242 174.269 204.242 176.339V176.597H195.949ZM199.14 171.591C198.18 171.591 197.421 171.906 196.862 172.536C196.304 173.159 196.007 174.019 195.971 175.114H202.244C202.044 172.765 201.009 171.591 199.14 171.591ZM217.412 176.135C217.412 178.169 217.047 179.69 216.316 180.7C215.593 181.71 214.555 182.215 213.201 182.215C211.454 182.215 210.258 181.556 209.613 180.238H209.592C209.592 180.582 209.577 180.94 209.549 181.312C209.527 181.685 209.509 181.914 209.495 182H207.626C207.669 181.613 207.69 180.815 207.69 179.604V166.059H209.624V170.603C209.624 171.068 209.61 171.63 209.581 172.289H209.624C210.276 170.857 211.472 170.141 213.212 170.141C216.012 170.141 217.412 172.139 217.412 176.135ZM215.414 176.199C215.414 174.595 215.192 173.435 214.748 172.719C214.311 171.995 213.624 171.634 212.686 171.634C211.618 171.634 210.841 172.028 210.354 172.815C209.868 173.596 209.624 174.781 209.624 176.371C209.624 177.868 209.86 178.978 210.333 179.701C210.806 180.424 211.583 180.786 212.664 180.786C213.631 180.786 214.329 180.414 214.759 179.669C215.196 178.917 215.414 177.76 215.414 176.199Z" fill="#4ADE80"/>
<path d="M233.375 172.805V171.215H244.063V172.805H233.375ZM233.375 178.305V176.715H244.063V178.305H233.375ZM466.255 176.285C466.255 178.29 465.958 180.084 465.363 181.667C464.776 183.243 463.795 184.875 462.42 186.565H460.357C461.761 184.84 462.764 183.182 463.365 181.592C463.967 179.995 464.268 178.233 464.268 176.307C464.268 174.387 463.967 172.633 463.365 171.043C462.764 169.446 461.761 167.785 460.357 166.059H462.42C463.816 167.777 464.805 169.417 465.385 170.979C465.965 172.54 466.255 174.309 466.255 176.285Z" fill="white"/>
<path d="M271.327 173.89C271.327 176.024 271.03 177.725 270.436 178.992C269.848 180.253 269.053 180.883 268.051 180.883C267.027 180.883 266.515 180.321 266.515 179.196V179.11L266.536 178.788H266.472C266.228 179.418 265.884 179.927 265.44 180.313C265.004 180.693 264.506 180.883 263.947 180.883C263.188 180.883 262.594 180.525 262.164 179.809C261.742 179.092 261.53 178.072 261.53 176.747C261.53 175.594 261.702 174.506 262.046 173.481C262.397 172.457 262.869 171.652 263.464 171.064C264.065 170.47 264.735 170.173 265.473 170.173C265.981 170.173 266.396 170.323 266.719 170.624C267.048 170.918 267.292 171.387 267.449 172.031H267.503L267.847 170.409H269.093L268.029 175.855C267.743 177.359 267.6 178.355 267.6 178.842C267.6 179.472 267.775 179.787 268.126 179.787C268.685 179.787 269.139 179.254 269.49 178.187C269.848 177.119 270.027 175.694 270.027 173.911C270.027 171.949 269.637 170.359 268.856 169.142C268.076 167.917 267.041 167.305 265.752 167.305C264.692 167.305 263.754 167.691 262.938 168.465C262.121 169.231 261.491 170.312 261.047 171.709C260.603 173.105 260.381 174.695 260.381 176.479C260.381 178.691 260.796 180.46 261.627 181.785C262.458 183.11 263.596 183.772 265.043 183.772C265.716 183.772 266.364 183.647 266.987 183.396C267.61 183.146 268.284 182.705 269.007 182.075L269.77 183.01C268.946 183.719 268.147 184.234 267.374 184.557C266.601 184.879 265.788 185.04 264.936 185.04C263.754 185.04 262.712 184.693 261.81 183.998C260.914 183.303 260.227 182.304 259.747 181.001C259.267 179.69 259.027 178.183 259.027 176.479C259.027 174.43 259.303 172.615 259.854 171.032C260.406 169.442 261.194 168.218 262.218 167.358C263.242 166.492 264.427 166.059 265.773 166.059C266.905 166.059 267.886 166.384 268.717 167.036C269.555 167.681 270.199 168.597 270.65 169.786C271.102 170.968 271.327 172.336 271.327 173.89ZM266.88 173.578C266.88 172.819 266.755 172.246 266.504 171.859C266.253 171.465 265.917 171.269 265.494 171.269C265.043 171.269 264.628 171.508 264.248 171.988C263.868 172.461 263.561 173.134 263.324 174.008C263.095 174.874 262.98 175.78 262.98 176.726C262.98 178.738 263.389 179.744 264.205 179.744C264.735 179.744 265.211 179.404 265.634 178.724C266.056 178.043 266.368 177.141 266.568 176.017C266.776 174.892 266.88 174.079 266.88 173.578ZM279.771 180.475H283.853V182H273.304V180.475H277.837V171.902H274.41V170.377H279.771V180.475ZM277.622 168.121V166.059H279.771V168.121H277.622ZM290.685 182V174.631C290.685 173.528 290.595 172.758 290.416 172.321C290.244 171.877 289.925 171.655 289.46 171.655C289.002 171.655 288.629 171.999 288.343 172.687C288.063 173.374 287.924 174.305 287.924 175.479V182H286.108V172.858C286.108 171.505 286.087 170.678 286.044 170.377H287.645L287.709 171.741V172.257H287.73C287.974 171.526 288.282 170.996 288.654 170.667C289.027 170.33 289.492 170.162 290.051 170.162C290.681 170.162 291.15 170.334 291.458 170.678C291.773 171.021 291.999 171.551 292.135 172.268H292.156C292.443 171.508 292.783 170.968 293.177 170.646C293.578 170.323 294.083 170.162 294.691 170.162C295.536 170.162 296.142 170.47 296.507 171.086C296.872 171.702 297.055 172.758 297.055 174.255V182H295.25V174.631C295.25 173.528 295.16 172.758 294.981 172.321C294.81 171.877 294.491 171.655 294.025 171.655C293.553 171.655 293.177 171.956 292.897 172.558C292.625 173.159 292.489 174.062 292.489 175.265V182H290.685ZM309.902 176.135C309.902 180.188 308.499 182.215 305.691 182.215C303.93 182.215 302.744 181.556 302.136 180.238H302.082C302.111 180.296 302.125 180.89 302.125 182.021V186.565H300.181V172.783C300.181 171.566 300.159 170.764 300.116 170.377H301.996C302.003 170.406 302.014 170.513 302.028 170.699C302.043 170.878 302.057 171.147 302.071 171.505C302.093 171.856 302.104 172.117 302.104 172.289H302.146C302.505 171.537 302.959 170.993 303.511 170.656C304.069 170.312 304.796 170.141 305.691 170.141C307.109 170.141 308.166 170.631 308.86 171.612C309.555 172.586 309.902 174.094 309.902 176.135ZM307.904 176.135C307.904 174.516 307.686 173.363 307.249 172.676C306.812 171.981 306.125 171.634 305.187 171.634C304.105 171.634 303.325 172.028 302.845 172.815C302.365 173.596 302.125 174.781 302.125 176.371C302.125 177.896 302.365 179.014 302.845 179.723C303.325 180.432 304.098 180.786 305.165 180.786C306.118 180.786 306.812 180.424 307.249 179.701C307.686 178.978 307.904 177.789 307.904 176.135ZM323.19 176.178C323.19 178.133 322.739 179.63 321.837 180.668C320.942 181.699 319.646 182.215 317.948 182.215C316.287 182.215 315.012 181.692 314.124 180.646C313.243 179.601 312.803 178.111 312.803 176.178C312.803 174.18 313.254 172.679 314.156 171.677C315.066 170.667 316.351 170.162 318.013 170.162C319.76 170.162 321.06 170.66 321.912 171.655C322.764 172.651 323.19 174.158 323.19 176.178ZM321.16 176.178C321.16 174.638 320.913 173.489 320.419 172.729C319.932 171.97 319.141 171.591 318.045 171.591C316.935 171.591 316.122 171.978 315.606 172.751C315.091 173.524 314.833 174.667 314.833 176.178C314.833 177.682 315.091 178.827 315.606 179.615C316.122 180.396 316.896 180.786 317.927 180.786C319.065 180.786 319.889 180.403 320.397 179.637C320.906 178.87 321.16 177.717 321.16 176.178ZM335.845 172.139C335.043 172.003 334.284 171.935 333.567 171.935C332.414 171.935 331.483 172.368 330.774 173.234C330.065 174.101 329.711 175.204 329.711 176.543V182H327.777V174.47C327.777 173.925 327.727 173.285 327.627 172.547C327.534 171.809 327.398 171.086 327.219 170.377H329.056C329.342 171.365 329.514 172.26 329.571 173.062H329.625C329.983 172.26 330.334 171.673 330.678 171.301C331.021 170.921 331.43 170.638 331.902 170.452C332.375 170.259 332.951 170.162 333.632 170.162C334.377 170.162 335.114 170.223 335.845 170.345V172.139ZM339.873 171.902V170.377H341.699L342.322 167.348H343.611V170.377H348.252V171.902H343.611V178.906C343.611 179.472 343.762 179.891 344.062 180.163C344.37 180.435 344.872 180.571 345.566 180.571C346.526 180.571 347.59 180.45 348.757 180.206V181.678C347.547 182.007 346.347 182.172 345.158 182.172C343.998 182.172 343.128 181.928 342.548 181.441C341.968 180.947 341.678 180.17 341.678 179.11V171.902H339.873Z" fill="#FFD885"/>
<path d="M370.886 172.74L372.701 166.059H375.548L372.207 172.74H370.886ZM366.17 172.74L367.985 166.059H370.832L367.491 172.74H366.17ZM388.857 178.681C388.857 179.784 388.438 180.65 387.601 181.28C386.77 181.903 385.617 182.215 384.142 182.215C382.666 182.215 381.542 181.986 380.769 181.527C380.002 181.062 379.501 180.331 379.265 179.336L380.973 179.003C381.109 179.619 381.399 180.07 381.843 180.356C382.294 180.636 383.06 180.775 384.142 180.775C386.075 180.775 387.042 180.163 387.042 178.938C387.042 178.48 386.867 178.111 386.516 177.832C386.165 177.546 385.628 177.313 384.904 177.134C383.014 176.668 381.814 176.303 381.306 176.038C380.797 175.773 380.407 175.444 380.135 175.05C379.863 174.649 379.727 174.151 379.727 173.557C379.727 172.504 380.106 171.68 380.865 171.086C381.624 170.492 382.724 170.194 384.163 170.194C385.424 170.194 386.43 170.434 387.182 170.914C387.934 171.387 388.403 172.078 388.589 172.987L386.849 173.202C386.77 172.687 386.516 172.296 386.086 172.031C385.656 171.766 385.015 171.634 384.163 171.634C382.409 171.634 381.531 172.174 381.531 173.256C381.531 173.686 381.678 174.029 381.972 174.287C382.272 174.545 382.752 174.753 383.411 174.91L384.689 175.243C385.857 175.53 386.695 175.812 387.203 176.092C387.719 176.371 388.123 176.722 388.417 177.145C388.711 177.56 388.857 178.072 388.857 178.681ZM402.393 176.135C402.393 180.188 400.989 182.215 398.182 182.215C396.42 182.215 395.235 181.556 394.626 180.238H394.572C394.601 180.296 394.615 180.89 394.615 182.021V186.565H392.671V172.783C392.671 171.566 392.649 170.764 392.606 170.377H394.486C394.493 170.406 394.504 170.513 394.519 170.699C394.533 170.878 394.547 171.147 394.562 171.505C394.583 171.856 394.594 172.117 394.594 172.289H394.637C394.995 171.537 395.45 170.993 396.001 170.656C396.56 170.312 397.286 170.141 398.182 170.141C399.6 170.141 400.656 170.631 401.351 171.612C402.045 172.586 402.393 174.094 402.393 176.135ZM400.395 176.135C400.395 174.516 400.176 173.363 399.739 172.676C399.302 171.981 398.615 171.634 397.677 171.634C396.595 171.634 395.815 172.028 395.335 172.815C394.855 173.596 394.615 174.781 394.615 176.371C394.615 177.896 394.855 179.014 395.335 179.723C395.815 180.432 396.588 180.786 397.655 180.786C398.608 180.786 399.302 180.424 399.739 179.701C400.176 178.978 400.395 177.789 400.395 176.135ZM407.355 176.597C407.355 177.9 407.642 178.921 408.215 179.658C408.795 180.396 409.586 180.765 410.589 180.765C411.326 180.765 411.971 180.607 412.522 180.292C413.081 179.97 413.453 179.533 413.64 178.981L415.337 179.465C415.022 180.353 414.442 181.033 413.597 181.506C412.759 181.979 411.756 182.215 410.589 182.215C408.899 182.215 407.599 181.688 406.689 180.636C405.78 179.583 405.325 178.076 405.325 176.113C405.325 174.201 405.769 172.733 406.657 171.709C407.552 170.678 408.841 170.162 410.524 170.162C412.207 170.162 413.482 170.674 414.349 171.698C415.215 172.722 415.648 174.269 415.648 176.339V176.597H407.355ZM410.546 171.591C409.586 171.591 408.827 171.906 408.269 172.536C407.71 173.159 407.413 174.019 407.377 175.114H413.65C413.45 172.765 412.415 171.591 410.546 171.591ZM420.568 176.597C420.568 177.9 420.855 178.921 421.428 179.658C422.008 180.396 422.799 180.765 423.802 180.765C424.539 180.765 425.184 180.607 425.735 180.292C426.294 179.97 426.666 179.533 426.853 178.981L428.55 179.465C428.235 180.353 427.655 181.033 426.81 181.506C425.972 181.979 424.969 182.215 423.802 182.215C422.112 182.215 420.812 181.688 419.902 180.636C418.993 179.583 418.538 178.076 418.538 176.113C418.538 174.201 418.982 172.733 419.87 171.709C420.765 170.678 422.054 170.162 423.737 170.162C425.42 170.162 426.695 170.674 427.562 171.698C428.428 172.722 428.861 174.269 428.861 176.339V176.597H420.568ZM423.759 171.591C422.799 171.591 422.04 171.906 421.481 172.536C420.923 173.159 420.626 174.019 420.59 175.114H426.863C426.663 172.765 425.628 171.591 423.759 171.591ZM439.582 180.131C439.231 180.883 438.766 181.431 438.186 181.774C437.605 182.111 436.882 182.279 436.016 182.279C434.569 182.279 433.506 181.782 432.825 180.786C432.145 179.791 431.805 178.29 431.805 176.285C431.805 172.232 433.208 170.205 436.016 170.205C436.882 170.205 437.605 170.359 438.186 170.667C438.773 170.975 439.242 171.48 439.593 172.182H439.614L439.593 170.56V166.059H441.526V179.604C441.526 180.815 441.548 181.613 441.591 182H439.743C439.715 181.893 439.689 181.631 439.668 181.216C439.646 180.8 439.636 180.439 439.636 180.131H439.582ZM433.803 176.221C433.803 177.811 434.014 178.971 434.437 179.701C434.866 180.424 435.561 180.786 436.521 180.786C437.566 180.786 438.34 180.41 438.841 179.658C439.342 178.899 439.593 177.696 439.593 176.049C439.593 174.509 439.349 173.388 438.862 172.687C438.382 171.985 437.609 171.634 436.542 171.634C435.575 171.634 434.877 172.003 434.447 172.74C434.018 173.478 433.803 174.638 433.803 176.221ZM450.163 172.74L451.979 166.059H454.825L451.484 172.74H450.163ZM445.447 172.74L447.263 166.059H450.109L446.769 172.74H445.447Z" fill="#CE9178"/>
<g clip-path="url(#clip0_8_3)">
<path d="M963.187 77.7543H865.677V97.5869H963.187V77.7543Z" fill="#4ADE80"/>
<path d="M976.079 97.5869L955.754 77.5063H996.403L976.079 97.5869Z" fill="#4ADE80"/>
<path d="M977.579 95.3896L962.808 81.3233L916.658 125.269L931.43 139.336L977.579 95.3896Z" fill="#4ADE80"/>
<path d="M923.357 118.742L944.397 138.822H902.317L923.357 118.742Z" fill="#4ADE80"/>
<path d="M949.47 150.474L929.002 130.641H969.937L949.47 150.474Z" fill="#4ADE80"/>
<path d="M951.905 147.942L937.133 133.876L890.984 177.822L905.755 191.888L951.905 147.942Z" fill="#4ADE80"/>
<path d="M891.129 177.248L911.453 197.328H870.804L891.129 177.248Z" fill="#4ADE80"/>
<path d="M911.457 197.08L890.99 177.744H931.925L911.457 197.08Z" fill="#4ADE80"/>
<path d="M999.547 177.248H906.003V197.08H999.547V177.248Z" fill="#4ADE80"/>
<path d="M980.53 177.746V158.096L999.773 177.746H980.53Z" fill="#4ADE80"/>
<path d="M884.712 97.0257L884.649 116.676L865.469 96.9695L884.712 97.0257Z" fill="#4ADE80"/>
</g>
<defs>
<clipPath id="clip0_8_3">
<rect width="134.531" height="120" fill="white" transform="translate(865.469 77.5)"/>
</clipPath>
</defs>
</svg>
