<svg width="1181" height="277" viewBox="0 0 1181 277" fill="none" xmlns="http://www.w3.org/2000/svg">
<path d="M1180.5 0.5V210C1180.5 246.727 1150.73 276.5 1114 276.5H0.5V0.5H1180.5Z" fill="#1E1E1E"/>
<path d="M1180.5 0.5V210C1180.5 246.727 1150.73 276.5 1114 276.5H0.5V0.5H1180.5Z" stroke="black"/>
<path d="M104.878 139V132.612L130.283 96.9652H104.828V88.0909H143.805V94.4794L118.376 130.126H143.855V139H104.878ZM151.915 139V100.818H162.505V139H151.915ZM157.235 95.8963C155.661 95.8963 154.31 95.3743 153.183 94.3303C152.073 93.2696 151.518 92.0019 151.518 90.527C151.518 89.0687 152.073 87.8175 153.183 86.7734C154.31 85.7128 155.661 85.1825 157.235 85.1825C158.809 85.1825 160.152 85.7128 161.262 86.7734C162.389 87.8175 162.952 89.0687 162.952 90.527C162.952 92.0019 162.389 93.2696 161.262 94.3303C160.152 95.3743 158.809 95.8963 157.235 95.8963ZM188.388 139.746C184.461 139.746 181.08 138.95 178.246 137.359C175.429 135.752 173.258 133.482 171.733 130.548C170.209 127.598 169.446 124.11 169.446 120.083C169.446 116.156 170.209 112.709 171.733 109.742C173.258 106.776 175.404 104.464 178.172 102.807C180.956 101.15 184.22 100.321 187.966 100.321C190.484 100.321 192.829 100.727 195 101.539C197.188 102.335 199.094 103.536 200.718 105.143C202.358 106.751 203.634 108.773 204.546 111.209C205.457 113.628 205.913 116.462 205.913 119.71V122.619H173.672V116.056H195.945C195.945 114.531 195.614 113.181 194.951 112.004C194.288 110.828 193.368 109.908 192.191 109.245C191.031 108.566 189.681 108.226 188.14 108.226C186.532 108.226 185.107 108.599 183.864 109.344C182.638 110.074 181.676 111.06 180.98 112.303C180.284 113.529 179.928 114.896 179.912 116.404V122.643C179.912 124.533 180.26 126.165 180.956 127.54C181.668 128.916 182.671 129.977 183.963 130.722C185.256 131.468 186.789 131.841 188.562 131.841C189.739 131.841 190.816 131.675 191.794 131.344C192.771 131.012 193.608 130.515 194.304 129.852C195 129.189 195.531 128.377 195.895 127.416L205.689 128.062C205.192 130.416 204.173 132.471 202.632 134.227C201.107 135.967 199.135 137.326 196.716 138.304C194.313 139.265 191.537 139.746 188.388 139.746ZM220.989 100.818L227.999 114.167L235.183 100.818H246.046L234.984 119.909L246.344 139H235.531L227.999 125.8L220.592 139H209.654L220.989 119.909L210.052 100.818H220.989Z" fill="white"/>
<path d="M102.396 177.178C102.396 175.244 102.858 173.758 103.782 172.72C104.706 171.681 106.042 171.162 107.789 171.162C109.092 171.162 110.167 171.477 111.012 172.107C111.857 172.73 112.38 173.572 112.58 174.632L110.518 174.782C110.403 174.131 110.117 173.618 109.658 173.246C109.2 172.867 108.548 172.677 107.703 172.677C106.572 172.677 105.741 173.028 105.211 173.729C104.688 174.431 104.427 175.566 104.427 177.135C104.427 178.725 104.688 179.888 105.211 180.626C105.741 181.356 106.568 181.722 107.692 181.722C108.466 181.722 109.107 181.532 109.615 181.152C110.124 180.773 110.439 180.193 110.561 179.412L112.602 179.541C112.508 180.229 112.247 180.855 111.817 181.421C111.395 181.979 110.833 182.42 110.131 182.742C109.429 183.057 108.645 183.215 107.778 183.215C106.024 183.215 104.688 182.699 103.771 181.668C102.855 180.637 102.396 179.14 102.396 177.178ZM125.997 177.178C125.997 179.133 125.546 180.63 124.644 181.668C123.748 182.699 122.452 183.215 120.755 183.215C119.093 183.215 117.819 182.692 116.931 181.646C116.05 180.601 115.609 179.111 115.609 177.178C115.609 175.18 116.061 173.679 116.963 172.677C117.872 171.667 119.158 171.162 120.819 171.162C122.567 171.162 123.867 171.66 124.719 172.655C125.571 173.651 125.997 175.158 125.997 177.178ZM123.967 177.178C123.967 175.638 123.72 174.489 123.226 173.729C122.739 172.97 121.947 172.591 120.852 172.591C119.742 172.591 118.929 172.978 118.413 173.751C117.897 174.524 117.64 175.667 117.64 177.178C117.64 178.682 117.897 179.827 118.413 180.615C118.929 181.396 119.702 181.786 120.733 181.786C121.872 181.786 122.696 181.403 123.204 180.637C123.713 179.87 123.967 178.717 123.967 177.178ZM136.75 183V175.534C136.75 174.56 136.56 173.837 136.181 173.364C135.808 172.892 135.21 172.655 134.387 172.655C133.499 172.655 132.768 172.981 132.195 173.633C131.63 174.277 131.347 175.155 131.347 176.265V183H129.413V173.858C129.413 172.505 129.392 171.678 129.349 171.377H131.175C131.182 171.413 131.189 171.509 131.196 171.667C131.203 171.825 131.211 172.007 131.218 172.215C131.232 172.415 131.246 172.799 131.261 173.364H131.293C132.045 171.896 133.284 171.162 135.01 171.162C136.249 171.162 137.173 171.499 137.781 172.172C138.39 172.838 138.694 173.866 138.694 175.255V183H136.75ZM152.025 179.681C152.025 180.784 151.606 181.65 150.769 182.28C149.938 182.903 148.785 183.215 147.31 183.215C145.834 183.215 144.71 182.986 143.937 182.527C143.17 182.062 142.669 181.331 142.433 180.336L144.141 180.003C144.277 180.619 144.567 181.07 145.011 181.356C145.462 181.636 146.228 181.775 147.31 181.775C149.243 181.775 150.21 181.163 150.21 179.938C150.21 179.48 150.035 179.111 149.684 178.832C149.333 178.546 148.796 178.313 148.072 178.134C146.182 177.668 144.982 177.303 144.474 177.038C143.965 176.773 143.575 176.444 143.303 176.05C143.031 175.649 142.895 175.151 142.895 174.557C142.895 173.504 143.274 172.68 144.033 172.086C144.792 171.492 145.892 171.194 147.331 171.194C148.591 171.194 149.598 171.434 150.35 171.914C151.102 172.387 151.571 173.078 151.757 173.987L150.017 174.202C149.938 173.687 149.684 173.296 149.254 173.031C148.824 172.766 148.183 172.634 147.331 172.634C145.576 172.634 144.699 173.174 144.699 174.256C144.699 174.686 144.846 175.029 145.14 175.287C145.44 175.545 145.92 175.753 146.579 175.91L147.857 176.243C149.025 176.53 149.863 176.812 150.371 177.092C150.887 177.371 151.291 177.722 151.585 178.145C151.879 178.56 152.025 179.072 152.025 179.681ZM155.893 172.902V171.377H157.719L158.342 168.348H159.631V171.377H164.271V172.902H159.631V179.906C159.631 180.472 159.781 180.891 160.082 181.163C160.39 181.435 160.891 181.571 161.586 181.571C162.546 181.571 163.609 181.45 164.776 181.206V182.678C163.566 183.007 162.367 183.172 161.178 183.172C160.018 183.172 159.147 182.928 158.567 182.441C157.987 181.947 157.697 181.17 157.697 180.11V172.902H155.893Z" fill="#569CD6"/>
<path d="M357.728 177.307C357.728 179.276 358.032 181.056 358.641 182.646C359.249 184.235 360.241 185.875 361.616 187.565H359.575C358.2 185.875 357.212 184.239 356.61 182.656C356.016 181.066 355.719 179.276 355.719 177.285C355.719 175.33 356.012 173.568 356.6 172C357.187 170.424 358.179 168.777 359.575 167.059H361.616C360.241 168.749 359.249 170.392 358.641 171.989C358.032 173.579 357.728 175.352 357.728 177.307ZM476.289 174.589V171.377H478.813V174.589H476.289ZM474.742 186.899L476.558 179.788H479.404L476.063 186.899H474.742Z" fill="#D4D4D4"/>
<path d="M191.213 183H189.021L187.485 177.94L186.873 175.771L186.454 177.264L184.649 183H182.469L180.503 171.377H182.415L183.414 177.897C183.65 179.788 183.769 180.955 183.769 181.399C184.048 180.254 184.256 179.487 184.392 179.101L185.842 174.546H187.915L189.312 179.111C189.541 179.863 189.738 180.626 189.902 181.399C189.902 181.185 189.917 180.916 189.945 180.594C189.974 180.271 190.01 179.942 190.053 179.605C190.096 179.262 190.139 178.936 190.182 178.628C190.225 178.32 190.257 178.076 190.278 177.897L191.363 171.377H193.254L191.213 183ZM196.949 177.597C196.949 178.9 197.236 179.921 197.809 180.658C198.389 181.396 199.18 181.765 200.183 181.765C200.92 181.765 201.565 181.607 202.116 181.292C202.675 180.97 203.047 180.533 203.233 179.981L204.931 180.465C204.616 181.353 204.035 182.033 203.19 182.506C202.353 182.979 201.35 183.215 200.183 183.215C198.493 183.215 197.193 182.688 196.283 181.636C195.374 180.583 194.919 179.076 194.919 177.113C194.919 175.201 195.363 173.733 196.251 172.709C197.146 171.678 198.435 171.162 200.118 171.162C201.801 171.162 203.076 171.674 203.942 172.698C204.809 173.722 205.242 175.269 205.242 177.339V177.597H196.949ZM200.14 172.591C199.18 172.591 198.421 172.906 197.862 173.536C197.304 174.159 197.007 175.019 196.971 176.114H203.244C203.044 173.765 202.009 172.591 200.14 172.591ZM218.412 177.135C218.412 179.169 218.047 180.69 217.316 181.7C216.593 182.71 215.555 183.215 214.201 183.215C212.454 183.215 211.258 182.556 210.613 181.238H210.592C210.592 181.582 210.577 181.94 210.549 182.312C210.527 182.685 210.509 182.914 210.495 183H208.626C208.669 182.613 208.69 181.815 208.69 180.604V167.059H210.624V171.603C210.624 172.068 210.61 172.63 210.581 173.289H210.624C211.276 171.857 212.472 171.141 214.212 171.141C217.012 171.141 218.412 173.139 218.412 177.135ZM216.414 177.199C216.414 175.595 216.192 174.435 215.748 173.719C215.311 172.995 214.624 172.634 213.686 172.634C212.618 172.634 211.841 173.028 211.354 173.815C210.868 174.596 210.624 175.781 210.624 177.371C210.624 178.868 210.86 179.978 211.333 180.701C211.806 181.424 212.583 181.786 213.664 181.786C214.631 181.786 215.329 181.414 215.759 180.669C216.196 179.917 216.414 178.76 216.414 177.199Z" fill="#4ADE80"/>
<path d="M234.375 173.805V172.215H245.063V173.805H234.375ZM234.375 179.305V177.715H245.063V179.305H234.375ZM467.255 177.285C467.255 179.29 466.958 181.084 466.363 182.667C465.776 184.243 464.795 185.875 463.42 187.565H461.357C462.761 185.84 463.764 184.182 464.365 182.592C464.967 180.995 465.268 179.233 465.268 177.307C465.268 175.387 464.967 173.633 464.365 172.043C463.764 170.446 462.761 168.785 461.357 167.059H463.42C464.816 168.777 465.805 170.417 466.385 171.979C466.965 173.54 467.255 175.309 467.255 177.285Z" fill="white"/>
<path d="M272.327 174.89C272.327 177.024 272.03 178.725 271.436 179.992C270.848 181.253 270.053 181.883 269.051 181.883C268.027 181.883 267.515 181.321 267.515 180.196V180.11L267.536 179.788H267.472C267.228 180.418 266.884 180.927 266.44 181.313C266.004 181.693 265.506 181.883 264.947 181.883C264.188 181.883 263.594 181.525 263.164 180.809C262.742 180.092 262.53 179.072 262.53 177.747C262.53 176.594 262.702 175.506 263.046 174.481C263.397 173.457 263.869 172.652 264.464 172.064C265.065 171.47 265.735 171.173 266.473 171.173C266.981 171.173 267.396 171.323 267.719 171.624C268.048 171.918 268.292 172.387 268.449 173.031H268.503L268.847 171.409H270.093L269.029 176.855C268.743 178.359 268.6 179.355 268.6 179.842C268.6 180.472 268.775 180.787 269.126 180.787C269.685 180.787 270.139 180.254 270.49 179.187C270.848 178.119 271.027 176.694 271.027 174.911C271.027 172.949 270.637 171.359 269.856 170.142C269.076 168.917 268.041 168.305 266.752 168.305C265.692 168.305 264.754 168.691 263.938 169.465C263.121 170.231 262.491 171.312 262.047 172.709C261.603 174.105 261.381 175.695 261.381 177.479C261.381 179.691 261.796 181.46 262.627 182.785C263.458 184.11 264.596 184.772 266.043 184.772C266.716 184.772 267.364 184.647 267.987 184.396C268.61 184.146 269.284 183.705 270.007 183.075L270.77 184.01C269.946 184.719 269.147 185.234 268.374 185.557C267.601 185.879 266.788 186.04 265.936 186.04C264.754 186.04 263.712 185.693 262.81 184.998C261.914 184.303 261.227 183.304 260.747 182.001C260.267 180.69 260.027 179.183 260.027 177.479C260.027 175.43 260.303 173.615 260.854 172.032C261.406 170.442 262.194 169.218 263.218 168.358C264.242 167.492 265.427 167.059 266.773 167.059C267.905 167.059 268.886 167.384 269.717 168.036C270.555 168.681 271.199 169.597 271.65 170.786C272.102 171.968 272.327 173.336 272.327 174.89ZM267.88 174.578C267.88 173.819 267.755 173.246 267.504 172.859C267.253 172.465 266.917 172.269 266.494 172.269C266.043 172.269 265.628 172.508 265.248 172.988C264.868 173.461 264.561 174.134 264.324 175.008C264.095 175.874 263.98 176.78 263.98 177.726C263.98 179.738 264.389 180.744 265.205 180.744C265.735 180.744 266.211 180.404 266.634 179.724C267.056 179.043 267.368 178.141 267.568 177.017C267.776 175.892 267.88 175.079 267.88 174.578ZM280.771 181.475H284.853V183H274.304V181.475H278.837V172.902H275.41V171.377H280.771V181.475ZM278.622 169.121V167.059H280.771V169.121H278.622ZM291.685 183V175.631C291.685 174.528 291.595 173.758 291.416 173.321C291.244 172.877 290.925 172.655 290.46 172.655C290.002 172.655 289.629 172.999 289.343 173.687C289.063 174.374 288.924 175.305 288.924 176.479V183H287.108V173.858C287.108 172.505 287.087 171.678 287.044 171.377H288.645L288.709 172.741V173.257H288.73C288.974 172.526 289.282 171.996 289.654 171.667C290.027 171.33 290.492 171.162 291.051 171.162C291.681 171.162 292.15 171.334 292.458 171.678C292.773 172.021 292.999 172.551 293.135 173.268H293.156C293.443 172.508 293.783 171.968 294.177 171.646C294.578 171.323 295.083 171.162 295.691 171.162C296.536 171.162 297.142 171.47 297.507 172.086C297.872 172.702 298.055 173.758 298.055 175.255V183H296.25V175.631C296.25 174.528 296.16 173.758 295.981 173.321C295.81 172.877 295.491 172.655 295.025 172.655C294.553 172.655 294.177 172.956 293.897 173.558C293.625 174.159 293.489 175.062 293.489 176.265V183H291.685ZM310.902 177.135C310.902 181.188 309.499 183.215 306.691 183.215C304.93 183.215 303.744 182.556 303.136 181.238H303.082C303.111 181.296 303.125 181.89 303.125 183.021V187.565H301.181V173.783C301.181 172.566 301.159 171.764 301.116 171.377H302.996C303.003 171.406 303.014 171.513 303.028 171.699C303.043 171.878 303.057 172.147 303.071 172.505C303.093 172.856 303.104 173.117 303.104 173.289H303.146C303.505 172.537 303.959 171.993 304.511 171.656C305.069 171.312 305.796 171.141 306.691 171.141C308.109 171.141 309.166 171.631 309.86 172.612C310.555 173.586 310.902 175.094 310.902 177.135ZM308.904 177.135C308.904 175.516 308.686 174.363 308.249 173.676C307.812 172.981 307.125 172.634 306.187 172.634C305.105 172.634 304.325 173.028 303.845 173.815C303.365 174.596 303.125 175.781 303.125 177.371C303.125 178.896 303.365 180.014 303.845 180.723C304.325 181.432 305.098 181.786 306.165 181.786C307.118 181.786 307.812 181.424 308.249 180.701C308.686 179.978 308.904 178.789 308.904 177.135ZM324.19 177.178C324.19 179.133 323.739 180.63 322.837 181.668C321.942 182.699 320.646 183.215 318.948 183.215C317.287 183.215 316.012 182.692 315.124 181.646C314.243 180.601 313.803 179.111 313.803 177.178C313.803 175.18 314.254 173.679 315.156 172.677C316.066 171.667 317.351 171.162 319.013 171.162C320.76 171.162 322.06 171.66 322.912 172.655C323.764 173.651 324.19 175.158 324.19 177.178ZM322.16 177.178C322.16 175.638 321.913 174.489 321.419 173.729C320.932 172.97 320.141 172.591 319.045 172.591C317.935 172.591 317.122 172.978 316.606 173.751C316.091 174.524 315.833 175.667 315.833 177.178C315.833 178.682 316.091 179.827 316.606 180.615C317.122 181.396 317.896 181.786 318.927 181.786C320.065 181.786 320.889 181.403 321.397 180.637C321.906 179.87 322.16 178.717 322.16 177.178ZM336.845 173.139C336.043 173.003 335.284 172.935 334.567 172.935C333.414 172.935 332.483 173.368 331.774 174.234C331.065 175.101 330.711 176.204 330.711 177.543V183H328.777V175.47C328.777 174.925 328.727 174.285 328.627 173.547C328.534 172.809 328.398 172.086 328.219 171.377H330.056C330.342 172.365 330.514 173.26 330.571 174.062H330.625C330.983 173.26 331.334 172.673 331.678 172.301C332.021 171.921 332.43 171.638 332.902 171.452C333.375 171.259 333.951 171.162 334.632 171.162C335.377 171.162 336.114 171.223 336.845 171.345V173.139ZM340.873 172.902V171.377H342.699L343.322 168.348H344.611V171.377H349.252V172.902H344.611V179.906C344.611 180.472 344.762 180.891 345.062 181.163C345.37 181.435 345.872 181.571 346.566 181.571C347.526 181.571 348.59 181.45 349.757 181.206V182.678C348.547 183.007 347.347 183.172 346.158 183.172C344.998 183.172 344.128 182.928 343.548 182.441C342.968 181.947 342.678 181.17 342.678 180.11V172.902H340.873Z" fill="#FFD885"/>
<path d="M372.605 173.923H371.091L370.65 167.059H373.057L372.605 173.923ZM389.857 179.681C389.857 180.784 389.438 181.65 388.601 182.28C387.77 182.903 386.617 183.215 385.142 183.215C383.666 183.215 382.542 182.986 381.769 182.527C381.002 182.062 380.501 181.331 380.265 180.336L381.973 180.003C382.109 180.619 382.399 181.07 382.843 181.356C383.294 181.636 384.06 181.775 385.142 181.775C387.075 181.775 388.042 181.163 388.042 179.938C388.042 179.48 387.867 179.111 387.516 178.832C387.165 178.546 386.628 178.313 385.904 178.134C384.014 177.668 382.814 177.303 382.306 177.038C381.797 176.773 381.407 176.444 381.135 176.05C380.863 175.649 380.727 175.151 380.727 174.557C380.727 173.504 381.106 172.68 381.865 172.086C382.624 171.492 383.724 171.194 385.163 171.194C386.424 171.194 387.43 171.434 388.182 171.914C388.934 172.387 389.403 173.078 389.589 173.987L387.849 174.202C387.77 173.687 387.516 173.296 387.086 173.031C386.656 172.766 386.015 172.634 385.163 172.634C383.409 172.634 382.531 173.174 382.531 174.256C382.531 174.686 382.678 175.029 382.972 175.287C383.272 175.545 383.752 175.753 384.411 175.91L385.689 176.243C386.857 176.53 387.695 176.812 388.203 177.092C388.719 177.371 389.123 177.722 389.417 178.145C389.711 178.56 389.857 179.072 389.857 179.681ZM403.393 177.135C403.393 181.188 401.989 183.215 399.182 183.215C397.42 183.215 396.235 182.556 395.626 181.238H395.572C395.601 181.296 395.615 181.89 395.615 183.021V187.565H393.671V173.783C393.671 172.566 393.649 171.764 393.606 171.377H395.486C395.493 171.406 395.504 171.513 395.519 171.699C395.533 171.878 395.547 172.147 395.562 172.505C395.583 172.856 395.594 173.117 395.594 173.289H395.637C395.995 172.537 396.45 171.993 397.001 171.656C397.56 171.312 398.286 171.141 399.182 171.141C400.6 171.141 401.656 171.631 402.351 172.612C403.045 173.586 403.393 175.094 403.393 177.135ZM401.395 177.135C401.395 175.516 401.176 174.363 400.739 173.676C400.302 172.981 399.615 172.634 398.677 172.634C397.595 172.634 396.815 173.028 396.335 173.815C395.855 174.596 395.615 175.781 395.615 177.371C395.615 178.896 395.855 180.014 396.335 180.723C396.815 181.432 397.588 181.786 398.655 181.786C399.608 181.786 400.302 181.424 400.739 180.701C401.176 179.978 401.395 178.789 401.395 177.135ZM408.355 177.597C408.355 178.9 408.642 179.921 409.215 180.658C409.795 181.396 410.586 181.765 411.589 181.765C412.326 181.765 412.971 181.607 413.522 181.292C414.081 180.97 414.453 180.533 414.64 179.981L416.337 180.465C416.022 181.353 415.442 182.033 414.597 182.506C413.759 182.979 412.756 183.215 411.589 183.215C409.899 183.215 408.599 182.688 407.689 181.636C406.78 180.583 406.325 179.076 406.325 177.113C406.325 175.201 406.769 173.733 407.657 172.709C408.552 171.678 409.841 171.162 411.524 171.162C413.207 171.162 414.482 171.674 415.349 172.698C416.215 173.722 416.648 175.269 416.648 177.339V177.597H408.355ZM411.546 172.591C410.586 172.591 409.827 172.906 409.269 173.536C408.71 174.159 408.413 175.019 408.377 176.114H414.65C414.45 173.765 413.415 172.591 411.546 172.591ZM421.568 177.597C421.568 178.9 421.855 179.921 422.428 180.658C423.008 181.396 423.799 181.765 424.802 181.765C425.539 181.765 426.184 181.607 426.735 181.292C427.294 180.97 427.666 180.533 427.853 179.981L429.55 180.465C429.235 181.353 428.655 182.033 427.81 182.506C426.972 182.979 425.969 183.215 424.802 183.215C423.112 183.215 421.812 182.688 420.902 181.636C419.993 180.583 419.538 179.076 419.538 177.113C419.538 175.201 419.982 173.733 420.87 172.709C421.765 171.678 423.054 171.162 424.737 171.162C426.42 171.162 427.695 171.674 428.562 172.698C429.428 173.722 429.861 175.269 429.861 177.339V177.597H421.568ZM424.759 172.591C423.799 172.591 423.04 172.906 422.481 173.536C421.923 174.159 421.626 175.019 421.59 176.114H427.863C427.663 173.765 426.628 172.591 424.759 172.591ZM440.582 181.131C440.231 181.883 439.766 182.431 439.186 182.774C438.605 183.111 437.882 183.279 437.016 183.279C435.569 183.279 434.506 182.782 433.825 181.786C433.145 180.791 432.805 179.29 432.805 177.285C432.805 173.232 434.208 171.205 437.016 171.205C437.882 171.205 438.605 171.359 439.186 171.667C439.773 171.975 440.242 172.48 440.593 173.182H440.614L440.593 171.56V167.059H442.526V180.604C442.526 181.815 442.548 182.613 442.591 183H440.743C440.715 182.893 440.689 182.631 440.668 182.216C440.646 181.8 440.636 181.439 440.636 181.131H440.582ZM434.803 177.221C434.803 178.811 435.014 179.971 435.437 180.701C435.866 181.424 436.561 181.786 437.521 181.786C438.566 181.786 439.34 181.41 439.841 180.658C440.342 179.899 440.593 178.696 440.593 177.049C440.593 175.509 440.349 174.388 439.862 173.687C439.382 172.985 438.609 172.634 437.542 172.634C436.575 172.634 435.877 173.003 435.447 173.74C435.018 174.478 434.803 175.638 434.803 177.221ZM451.883 173.923H450.368L449.928 167.059H452.334L451.883 173.923Z" fill="#CE9178"/>
<g clip-path="url(#clip0_1_1820)">
<path d="M1043.19 78.7539H945.677V98.5865H1043.19V78.7539Z" fill="#4ADE80"/>
<path d="M1056.08 98.5864L1035.75 78.5059H1076.4L1056.08 98.5864Z" fill="#4ADE80"/>
<path d="M1057.58 96.3905L1042.81 82.3242L996.658 126.27L1011.43 140.336L1057.58 96.3905Z" fill="#4ADE80"/>
<path d="M1003.36 119.742L1024.4 139.823H982.317L1003.36 119.742Z" fill="#4ADE80"/>
<path d="M1029.47 151.473L1009 131.641H1049.94L1029.47 151.473Z" fill="#4ADE80"/>
<path d="M1031.9 148.941L1017.13 134.875L970.984 178.821L985.755 192.887L1031.9 148.941Z" fill="#4ADE80"/>
<path d="M971.129 178.248L991.453 198.329H950.804L971.129 178.248Z" fill="#4ADE80"/>
<path d="M991.457 198.081L970.99 178.744H1011.92L991.457 198.081Z" fill="#4ADE80"/>
<path d="M1079.55 178.248H986.003V198.081H1079.55V178.248Z" fill="#4ADE80"/>
<path d="M1060.53 178.746V159.096L1079.77 178.746H1060.53Z" fill="#4ADE80"/>
<path d="M964.712 98.0249L964.649 117.675L945.469 97.9688L964.712 98.0249Z" fill="#4ADE80"/>
</g>
<defs>
<clipPath id="clip0_1_1820">
<rect width="134.531" height="120" fill="white" transform="translate(945.469 78.5)"/>
</clipPath>
</defs>
</svg>
